<?xml version="1.0" standalone="no"?>
<!DOCTYPE svg PUBLIC "-//W3C//DTD SVG 20010904//EN"
 "http://www.w3.org/TR/2001/REC-SVG-20010904/DTD/svg10.dtd">
<svg version="1.0" xmlns="http://www.w3.org/2000/svg"
 width="999.000000pt" height="999.000000pt" viewBox="0 0 999.000000 999.000000"
 preserveAspectRatio="xMidYMid meet">
<metadata>
Created by potrace 1.14, written by Peter Selinger 2001-2017
</metadata>
<g transform="translate(0.000000,999.000000) scale(0.100000,-0.100000)"
fill="#000000" stroke="none">
<path d="M3044 9967 c-58 -50 -20 -147 57 -147 20 0 40 10 59 29 76 75 -35
188 -116 118z"/>
<path d="M2757 9802 c-37 -40 -9 -102 46 -102 33 0 57 24 57 59 0 54 -68 82
-103 43z"/>
<path d="M3010 9457 c-68 -34 -58 -143 15 -161 29 -7 74 9 91 32 19 24 16 83
-4 108 -22 26 -71 36 -102 21z"/>
<path d="M3759 9399 c-40 -40 -13 -109 43 -109 48 0 76 63 46 103 -20 26 -66
29 -89 6z"/>
<path d="M2185 9339 c-30 -25 -33 -61 -5 -89 25 -25 62 -26 84 -1 24 27 27 57
8 81 -24 29 -57 32 -87 9z"/>
<path d="M2565 9350 c-52 -20 -66 -85 -29 -130 29 -34 63 -42 103 -23 54 27
61 101 13 140 -28 24 -53 27 -87 13z"/>
<path d="M2850 9292 c-71 -22 -62 -123 11 -122 47 1 72 39 56 86 -8 24 -44 43
-67 36z"/>
<path d="M3263 9288 c-43 -9 -89 -47 -104 -86 -5 -13 -9 -45 -9 -71 0 -39 6
-54 33 -85 96 -110 267 -50 267 94 0 100 -87 168 -187 148z"/>
<path d="M3647 9182 c-37 -40 -9 -102 46 -102 41 0 62 28 57 75 -5 43 -73 61
-103 27z"/>
<path d="M2616 9114 c-106 -72 -79 -239 44 -271 64 -18 138 9 170 61 87 140
-78 302 -214 210z"/>
<path d="M2945 9096 c-21 -15 -25 -67 -5 -90 19 -24 76 -20 94 6 21 30 20 54
-4 78 -23 23 -58 26 -85 6z"/>
<path d="M3925 9075 c-146 -62 -108 -277 52 -292 39 -4 55 0 82 19 57 38 76
73 76 133 0 57 -18 91 -66 127 -32 24 -104 30 -144 13z"/>
<path d="M2165 9058 c-32 -17 -45 -39 -45 -75 0 -86 117 -116 156 -41 40 76
-38 157 -111 116z"/>
<path d="M3504 8977 c-85 -32 -137 -110 -136 -203 1 -129 117 -224 246 -201
121 20 199 144 166 261 -33 119 -162 185 -276 143z"/>
<path d="M3075 8795 c-127 -44 -140 -222 -21 -279 104 -49 218 19 219 132 2
109 -96 182 -198 147z"/>
<path d="M2535 8735 c-53 -52 -16 -145 58 -145 55 0 96 52 83 105 -16 64 -96
86 -141 40z"/>
<path d="M2320 8730 c-25 -25 -26 -62 -1 -84 27 -24 57 -27 80 -8 30 27 34 55
10 85 -25 32 -61 35 -89 7z"/>
<path d="M4390 8719 c-55 -23 -91 -77 -92 -138 -1 -116 117 -191 221 -139 99
49 111 194 21 258 -37 26 -111 36 -150 19z"/>
<path d="M2804 8656 c-22 -18 -25 -27 -19 -54 7 -36 14 -42 55 -48 21 -4 33 1
49 22 48 61 -26 131 -85 80z"/>
<path d="M4109 8661 c-43 -34 -13 -111 42 -111 27 0 59 35 59 64 0 23 -22 55
-38 57 -4 0 -15 2 -24 4 -10 2 -28 -5 -39 -14z"/>
<path d="M3775 8596 c-129 -55 -120 -247 14 -287 137 -41 251 116 170 232 -41
58 -121 82 -184 55z"/>
<path d="M2164 8569 c-97 -28 -134 -160 -68 -239 33 -39 57 -52 107 -56 106
-11 195 108 154 206 -34 79 -108 114 -193 89z"/>
<path d="M3499 8501 c-42 -35 -23 -96 33 -106 58 -11 90 62 46 102 -27 24 -53
26 -79 4z"/>
<path d="M4971 8510 c-77 -33 -131 -105 -136 -182 -8 -137 94 -237 230 -226
151 13 238 181 161 312 -39 67 -93 100 -170 103 -33 2 -72 -2 -85 -7z"/>
<path d="M2451 8472 c-32 -26 -34 -60 -6 -88 29 -29 54 -30 83 -4 57 53 -17
142 -77 92z"/>
<path d="M2730 8453 c-155 -59 -125 -287 39 -298 80 -5 150 52 158 129 7 59
-2 91 -35 126 -42 44 -111 62 -162 43z"/>
<path d="M5359 8397 c-123 -82 -67 -277 78 -277 59 0 102 22 132 66 47 69 24
175 -47 217 -44 25 -121 23 -163 -6z"/>
<path d="M4112 8374 c-47 -24 -75 -68 -80 -128 -13 -157 195 -225 278 -91 26
42 29 109 6 154 -36 68 -134 100 -204 65z"/>
<path d="M4558 8373 c-81 -39 -111 -134 -68 -210 73 -130 270 -88 284 60 11
113 -114 199 -216 150z"/>
<path d="M3205 8333 c-95 -21 -167 -109 -167 -202 2 -192 222 -286 359 -153
88 85 83 231 -11 309 -54 44 -118 60 -181 46z"/>
<path d="M6029 8248 c-118 -29 -154 -184 -61 -265 94 -81 238 -21 249 104 9
107 -83 186 -188 161z"/>
<path d="M1796 8195 c-78 -84 40 -200 121 -119 21 22 25 32 20 66 -7 51 -24
68 -75 75 -35 5 -44 2 -66 -22z"/>
<path d="M5645 8190 c-28 -11 -60 -49 -72 -85 -17 -49 -4 -94 38 -136 35 -35
41 -38 93 -36 48 2 60 7 90 36 46 45 55 96 27 154 -11 23 -34 50 -50 60 -30
18 -92 22 -126 7z"/>
<path d="M2220 8160 c-34 -34 -13 -93 36 -103 54 -10 92 60 53 101 -25 27 -63
28 -89 2z"/>
<path d="M6315 8125 c-53 -52 -16 -145 58 -145 55 0 96 52 83 105 -16 64 -96
86 -141 40z"/>
<path d="M2480 8122 c-41 -13 -53 -69 -20 -102 26 -26 56 -25 84 3 47 47 0
120 -64 99z"/>
<path d="M3576 8111 c-39 -43 -19 -101 39 -108 32 -5 68 42 60 77 -8 33 -15
38 -51 46 -22 4 -34 1 -48 -15z"/>
<path d="M5246 8123 c-2 -2 -13 -6 -25 -8 -40 -8 -93 -48 -121 -91 -20 -32
-27 -57 -29 -103 -7 -195 218 -294 355 -157 65 64 81 152 43 236 -32 71 -84
108 -165 119 -30 4 -56 6 -58 4z"/>
<path d="M3837 8106 c-94 -35 -145 -118 -134 -223 7 -70 45 -126 108 -160 37
-20 55 -24 110 -21 85 4 137 38 174 111 53 107 14 230 -89 284 -41 21 -123 26
-169 9z"/>
<path d="M4305 8106 c-51 -28 -74 -50 -99 -95 -81 -149 43 -330 212 -307 109
15 182 98 182 208 0 85 -50 162 -126 194 -40 17 -138 16 -169 0z"/>
<path d="M4720 8093 c-22 -9 -62 -41 -77 -63 -20 -28 -26 -96 -13 -134 21 -64
100 -110 170 -99 98 15 157 137 108 224 -34 61 -125 96 -188 72z"/>
<path d="M2097 7995 c-110 -38 -168 -159 -130 -271 51 -151 262 -187 362 -62
79 98 53 251 -53 313 -51 30 -126 39 -179 20z"/>
<path d="M2745 7946 c-71 -31 -108 -111 -85 -183 34 -105 151 -143 237 -77 44
33 56 59 57 121 1 55 -17 89 -66 126 -33 25 -104 31 -143 13z"/>
<path d="M6521 7943 c-33 -27 -34 -61 -5 -90 19 -19 31 -23 51 -18 53 13 69
69 31 105 -27 25 -49 25 -77 3z"/>
<path d="M6842 7949 c-45 -17 -48 -78 -6 -106 48 -31 105 12 90 70 -7 30 -51
48 -84 36z"/>
<path d="M3484 7896 c-46 -21 -66 -72 -55 -148 1 -4 13 -19 28 -33 100 -92
244 26 173 143 -31 50 -85 64 -146 38z"/>
<path d="M5529 7887 c-72 -48 -57 -165 25 -196 51 -20 110 -2 136 42 67 108
-56 225 -161 154z"/>
<path d="M6002 7884 c-52 -21 -69 -92 -32 -132 57 -60 150 -22 150 61 0 56
-63 94 -118 71z"/>
<path d="M5801 7867 c-52 -26 -42 -97 15 -111 62 -16 100 59 52 104 -25 23
-34 24 -67 7z"/>
<path d="M6285 7828 c-32 -17 -45 -39 -45 -75 0 -103 150 -112 166 -11 6 32 2
41 -24 68 -32 31 -63 37 -97 18z"/>
<path d="M3135 7811 c-77 -24 -107 -100 -65 -168 24 -39 54 -56 99 -55 87 4
137 104 90 181 -22 33 -84 55 -124 42z"/>
<path d="M4935 7799 c-30 -25 -33 -61 -5 -89 28 -28 64 -25 89 7 47 59 -24
128 -84 82z"/>
<path d="M6630 7781 c-37 -37 -39 -79 -7 -117 51 -59 147 -19 147 60 0 40 -34
75 -79 82 -25 4 -37 -1 -61 -25z"/>
<path d="M2542 7759 c-25 -9 -42 -45 -34 -69 17 -48 59 -63 100 -34 55 39 -1
127 -66 103z"/>
<path d="M6942 7715 c-79 -66 -1 -185 90 -139 52 27 63 85 26 128 -35 40 -78
43 -116 11z"/>
<path d="M4133 7722 c-30 -4 -63 -48 -63 -83 0 -15 11 -40 24 -55 70 -82 193
24 126 108 -20 26 -48 36 -87 30z"/>
<path d="M4548 7649 c-25 -14 -22 -55 4 -73 19 -13 25 -14 43 -2 26 17 31 49
10 70 -19 18 -33 20 -57 5z"/>
<path d="M5431 7651 c-67 -17 -80 -114 -19 -151 75 -45 159 30 120 109 -18 38
-55 53 -101 42z"/>
<path d="M5847 7642 c-38 -23 -49 -58 -34 -105 15 -45 72 -65 119 -41 37 19
51 59 35 107 -16 48 -74 66 -120 39z"/>
<path d="M4390 7643 c-41 -17 -51 -67 -20 -101 26 -28 64 -28 89 0 30 31 16
92 -22 102 -25 7 -27 7 -47 -1z"/>
<path d="M4726 7629 c-32 -25 -33 -47 -5 -84 18 -22 27 -26 52 -21 55 11 74
64 37 104 -26 28 -50 28 -84 1z"/>
<path d="M4945 7638 c-32 -19 -44 -41 -45 -80 0 -28 7 -42 30 -61 63 -53 153
3 135 84 -11 51 -77 83 -120 57z"/>
<path d="M3750 7598 c-27 -29 -26 -73 2 -92 33 -23 64 -19 87 11 24 30 20 58
-11 86 -27 23 -53 22 -78 -5z"/>
<path d="M2369 7560 c-81 -81 35 -195 119 -117 31 28 30 86 -1 116 -38 35 -84
35 -118 1z"/>
<path d="M5174 7559 c-64 -32 -55 -133 14 -157 56 -19 112 23 112 86 0 53 -76
96 -126 71z"/>
<path d="M6082 7560 c-44 -10 -90 -55 -104 -101 -42 -142 138 -252 241 -148
107 107 10 282 -137 249z"/>
<path d="M6565 7556 c-94 -42 -116 -167 -42 -244 96 -100 260 -32 260 109 1
109 -115 180 -218 135z"/>
<path d="M6277 7542 c-52 -57 26 -133 87 -87 22 17 26 66 6 89 -17 22 -73 20
-93 -2z"/>
<path d="M7330 7542 c-45 -36 -15 -114 44 -114 59 0 87 71 46 112 -25 25 -61
26 -90 2z"/>
<path d="M2672 7537 c-29 -13 -39 -53 -21 -86 37 -66 135 -16 108 55 -10 28
-57 44 -87 31z"/>
<path d="M3340 7528 c-67 -35 -98 -102 -79 -172 27 -99 134 -144 223 -93 77
44 98 138 49 214 -44 69 -119 89 -193 51z"/>
<path d="M1890 7522 c-30 -15 -60 -65 -60 -102 0 -58 55 -110 117 -110 45 0
77 20 98 60 30 59 14 116 -44 148 -41 23 -69 24 -111 4z"/>
<path d="M2913 7530 c-76 -31 -49 -160 33 -160 46 0 63 9 79 39 19 39 12 81
-19 108 -28 24 -56 28 -93 13z"/>
<path d="M4039 7525 c-83 -45 -27 -180 65 -154 69 19 87 89 37 140 -32 32 -62
36 -102 14z"/>
<path d="M7133 7508 c-82 -22 -89 -140 -11 -173 63 -26 127 17 128 86 0 63
-55 104 -117 87z"/>
<path d="M5567 7482 c-36 -40 -9 -102 45 -102 51 0 78 69 40 103 -24 22 -65
21 -85 -1z"/>
<path d="M4239 7476 c-43 -22 -41 -82 3 -110 26 -16 71 4 82 36 19 55 -33 100
-85 74z"/>
<path d="M4857 7438 c-37 -34 -41 -69 -14 -109 60 -90 196 -3 141 90 -27 46
-87 55 -127 19z"/>
<path d="M6864 7427 c-52 -45 -27 -130 42 -143 67 -12 120 54 93 117 -21 52
-89 65 -135 26z"/>
<path d="M3784 7430 c-67 -21 -113 -101 -100 -174 14 -73 99 -135 167 -122 13
3 29 5 36 5 27 2 81 62 92 103 33 121 -75 224 -195 188z"/>
<path d="M4639 7413 c-23 -6 -42 -47 -34 -72 10 -34 47 -53 78 -42 81 31 40
137 -44 114z"/>
<path d="M5051 7384 c-27 -35 -26 -49 5 -80 19 -20 31 -24 51 -19 81 20 61
124 -24 125 -6 0 -21 -12 -32 -26z"/>
<path d="M2235 7383 c-13 -8 -32 -27 -40 -43 -54 -105 62 -215 159 -151 125
83 14 263 -119 194z"/>
<path d="M2573 7380 c-97 -21 -148 -119 -112 -216 34 -94 175 -115 250 -38 28
29 33 42 36 91 3 45 0 65 -16 90 -35 56 -99 85 -158 73z"/>
<path d="M5875 7366 c-13 -13 -22 -32 -20 -42 2 -11 4 -24 4 -30 2 -22 52 -36
83 -23 15 6 28 14 29 18 0 3 3 18 5 33 3 20 -2 31 -22 47 -34 27 -49 26 -79
-3z"/>
<path d="M5675 7352 c-81 -18 -133 -120 -100 -199 17 -40 59 -81 93 -89 36
-10 102 2 131 23 126 93 30 298 -124 265z"/>
<path d="M4323 7325 c-123 -62 -156 -218 -68 -324 84 -99 239 -97 323 5 115
139 14 344 -170 344 -19 0 -57 -11 -85 -25z"/>
<path d="M5218 7316 c-24 -18 -39 -63 -32 -92 3 -13 18 -33 31 -44 57 -44 136
-6 136 65 0 29 -6 44 -27 62 -30 26 -81 30 -108 9z"/>
<path d="M5399 7311 c-43 -34 -13 -111 42 -111 27 0 59 35 59 64 0 23 -22 55
-38 57 -4 0 -15 2 -24 4 -10 2 -28 -5 -39 -14z"/>
<path d="M3085 7249 c-14 -12 -25 -31 -25 -45 0 -31 33 -64 64 -64 23 0 55 22
57 38 0 4 2 15 4 24 4 23 -24 57 -52 63 -12 2 -33 -5 -48 -16z"/>
<path d="M4972 7259 c-25 -9 -45 -53 -37 -79 15 -48 98 -50 116 -2 20 50 -28
100 -79 81z"/>
<path d="M7187 7259 c-97 -27 -92 -168 7 -193 30 -8 44 -6 70 8 110 59 43 219
-77 185z"/>
<path d="M2892 7249 c-50 -19 -46 -103 5 -116 58 -14 101 43 70 91 -18 28 -44
36 -75 25z"/>
<path d="M6026 7234 c-19 -18 -21 -75 -4 -92 17 -17 74 -15 92 4 22 21 20 67
-2 87 -23 21 -66 22 -86 1z"/>
<path d="M6307 7234 c-50 -27 -62 -83 -27 -127 49 -63 150 -31 150 48 0 63
-68 107 -123 79z"/>
<path d="M6861 7209 c-26 -24 -27 -70 -3 -92 40 -37 102 -9 102 46 0 23 -21
56 -38 58 -4 0 -15 2 -24 4 -9 2 -26 -6 -37 -16z"/>
<path d="M7396 7199 c-34 -27 -35 -71 -2 -104 21 -21 29 -23 58 -15 61 18 77
72 33 115 -30 30 -54 31 -89 4z"/>
<path d="M6579 7172 c-89 -47 -95 -185 -10 -235 96 -56 221 20 207 126 -12 98
-111 153 -197 109z"/>
<path d="M4765 7170 c-137 -29 -166 -222 -43 -286 66 -34 156 -13 199 47 79
111 -23 267 -156 239z"/>
<path d="M7575 7164 c-39 -40 14 -110 60 -80 29 19 31 61 3 80 -28 20 -42 20
-63 0z"/>
<path d="M1956 7130 c-42 -50 -18 -121 45 -134 40 -8 75 8 93 42 46 90 -73
169 -138 92z"/>
<path d="M3326 7150 c-85 -26 -146 -110 -146 -202 0 -74 32 -133 94 -175 l47
-32 -28 -7 c-136 -34 -157 -219 -31 -282 106 -53 220 17 220 134 0 55 -32 108
-79 133 l-35 18 35 1 c115 4 204 110 194 227 -12 134 -142 223 -271 185z"/>
<path d="M5104 7115 c-53 -22 -68 -101 -26 -138 46 -39 121 -23 139 30 13 38
-1 87 -29 100 -41 20 -54 21 -84 8z"/>
<path d="M2361 7106 c-19 -7 -48 -29 -65 -49 -24 -30 -30 -46 -30 -89 0 -62
12 -88 58 -123 71 -54 170 -37 219 37 81 125 -40 273 -182 224z"/>
<path d="M5397 7088 c-26 -21 -31 -61 -10 -87 25 -31 71 -31 95 -1 44 55 -28
130 -85 88z"/>
<path d="M3845 7066 c-274 -86 -358 -410 -160 -612 142 -143 383 -139 521 8
177 189 113 484 -126 590 -55 24 -178 32 -235 14z"/>
<path d="M5894 7067 c-31 -17 -43 -40 -44 -78 0 -75 91 -109 145 -54 66 65
-20 177 -101 132z"/>
<path d="M6092 7053 c-63 -31 -60 -129 5 -154 33 -12 76 -4 96 19 35 39 26
110 -17 130 -40 19 -53 20 -84 5z"/>
<path d="M2895 7034 c-17 -18 -25 -39 -25 -61 0 -96 145 -116 165 -22 19 87
-81 147 -140 83z"/>
<path d="M6855 7031 c-84 -35 -84 -172 1 -207 70 -29 147 13 159 87 15 86 -76
154 -160 120z"/>
<path d="M1795 7005 c-50 -49 -17 -145 49 -145 57 0 96 39 96 96 0 37 -42 74
-85 74 -25 0 -44 -8 -60 -25z"/>
<path d="M7341 7009 c-22 -24 -27 -68 -11 -99 16 -29 63 -41 96 -24 36 19 44
31 44 69 -1 43 -22 66 -68 72 -32 4 -43 1 -61 -18z"/>
<path d="M7143 7000 c-46 -19 -57 -83 -20 -118 33 -31 80 -29 106 4 34 43 28
75 -19 107 -27 19 -35 20 -67 7z"/>
<path d="M2698 6964 c-75 -39 -44 -154 42 -159 60 -3 104 69 75 125 -9 17 -21
33 -28 35 -33 12 -65 12 -89 -1z"/>
<path d="M5292 6943 c-12 -3 -40 -21 -61 -41 -129 -123 20 -323 179 -242 26
13 47 34 60 60 63 124 -36 248 -178 223z"/>
<path d="M2029 6871 c-56 -57 -23 -141 56 -141 90 0 118 116 38 158 -35 19
-63 14 -94 -17z"/>
<path d="M5885 6848 c-49 -26 -59 -77 -24 -122 28 -36 72 -35 109 3 35 35 33
74 -6 109 -28 24 -49 27 -79 10z"/>
<path d="M5606 6829 c-33 -26 -37 -86 -6 -114 51 -46 130 -11 130 59 0 39 -36
76 -75 76 -12 0 -34 -9 -49 -21z"/>
<path d="M6110 6820 c-34 -34 -24 -71 22 -89 54 -21 98 59 52 94 -26 20 -51
18 -74 -5z"/>
<path d="M6690 6817 c-120 -55 -166 -179 -109 -293 85 -171 344 -141 389 45
33 140 -68 263 -215 260 -22 0 -51 -6 -65 -12z"/>
<path d="M2544 6794 c-22 -33 -9 -74 28 -92 23 -11 31 -10 52 3 32 21 37 38
25 74 -16 47 -79 56 -105 15z"/>
<path d="M3017 6802 c-38 -42 -11 -105 43 -105 38 0 60 23 60 63 0 53 -69 80
-103 42z"/>
<path d="M7005 6798 c-55 -48 -37 -127 32 -147 27 -8 38 -5 65 13 27 18 34 29
36 64 3 35 -1 46 -24 67 -34 31 -75 32 -109 3z"/>
<path d="M7605 6797 c-32 -27 -45 -95 -24 -133 38 -72 149 -71 184 1 18 40 19
65 3 100 -25 55 -116 73 -163 32z"/>
<path d="M4804 6795 c-197 -42 -320 -233 -278 -432 50 -239 308 -359 529 -246
61 32 125 101 158 172 39 83 42 194 8 283 -64 165 -242 260 -417 223z"/>
<path d="M1833 6789 c-48 -18 -38 -102 13 -115 34 -9 55 4 70 42 10 25 10 33
-4 52 -20 26 -48 33 -79 21z"/>
<path d="M2230 6780 c-25 -25 -25 -51 -2 -79 23 -28 57 -34 81 -13 31 26 36
63 11 90 -26 27 -64 28 -90 2z"/>
<path d="M2853 6770 c-35 -14 -57 -65 -44 -102 6 -17 11 -33 11 -34 0 -9 -61
-3 -96 9 -27 10 -49 11 -74 4 -19 -5 -52 -11 -72 -14 -38 -5 -38 -6 -39 -52
-1 -46 0 -3060 1 -3073 0 -4 10 -16 22 -28 28 -26 78 -26 111 0 31 25 32 25
57 0 12 -12 25 -18 30 -15 6 4 10 1 10 -4 0 -6 -7 -11 -16 -11 -24 0 -72 -38
-89 -70 -68 -131 68 -274 200 -210 54 26 84 72 86 132 3 80 -47 141 -131 157
-25 5 -38 9 -29 10 9 1 22 8 29 16 12 14 16 13 36 -6 20 -19 27 -21 49 -11 14
6 25 16 25 22 0 6 24 10 55 10 42 0 60 -5 75 -20 11 -11 29 -20 40 -20 11 0
29 9 40 20 28 28 93 27 121 -1 23 -23 65 -20 85 7 15 20 43 18 89 -7 45 -23
110 -20 148 6 31 22 90 19 112 -5 23 -26 75 -26 108 0 33 26 84 26 105 0 26
-31 66 -33 93 -4 27 29 34 30 66 4 14 -11 40 -20 58 -20 18 0 42 9 55 20 33
29 142 29 172 0 12 -11 36 -20 54 -20 17 0 43 9 57 20 23 18 40 20 182 20 142
0 159 -2 182 -20 14 -11 40 -20 58 -20 60 0 103 77 70 126 -15 23 -14 24 8 24
50 0 76 70 39 103 -10 10 -26 17 -36 17 -13 0 -10 8 16 41 27 34 32 49 32 93
0 38 -6 60 -23 84 -45 64 -37 63 -511 62 -237 0 -430 4 -430 8 0 5 -11 14 -25
20 -27 12 -75 1 -75 -18 0 -7 -138 -10 -415 -10 l-415 0 4 23 c2 12 -6 39 -18
60 -20 37 -20 39 -3 52 25 18 26 74 1 92 -17 12 -19 29 -20 201 0 126 3 194
11 207 22 37 24 68 9 101 -22 47 -23 65 -4 97 17 28 16 60 -2 84 -7 8 -3 27
11 56 23 47 21 65 -11 106 -18 23 -17 25 4 60 13 20 21 38 20 41 -33 53 -38
71 -38 131 1 39 6 73 14 82 20 24 22 49 4 77 -23 36 -24 200 -1 260 16 45 13
80 -10 95 -7 4 -4 16 10 34 27 37 27 82 1 116 -22 28 -22 28 -3 59 26 41 26
42 5 74 -27 41 -27 147 0 192 11 19 21 35 21 35 0 0 -10 16 -21 35 -16 28 -21
50 -19 105 1 39 7 80 13 92 24 44 7 86 -41 98 -20 5 -32 1 -52 -19 -32 -32
-49 -34 -39 -3 4 12 7 27 7 32 0 43 -6 57 -35 75 -36 22 -51 23 -85 10z m2063
-3055 c-13 -10 -17 -23 -14 -49 3 -32 1 -36 -18 -36 -24 0 -32 18 -26 62 3 22
10 28 36 31 17 2 33 4 36 5 3 1 -3 -5 -14 -13z"/>
<path d="M7276 6757 c-49 -12 -131 -91 -141 -135 -6 -28 -10 -31 -43 -30 -84
1 -82 2 -82 -47 0 -34 -4 -45 -15 -45 -18 0 -34 -36 -27 -62 2 -9 13 -20 23
-23 16 -5 19 -16 19 -66 0 -32 -4 -59 -8 -59 -11 0 -32 -46 -32 -69 0 -10 9
-30 20 -44 27 -33 25 -61 -4 -90 -28 -28 -25 -66 6 -74 23 -7 25 -58 3 -71
-24 -13 -26 -51 -5 -72 28 -28 28 -112 0 -140 -25 -25 -25 -44 0 -67 17 -16
19 -34 21 -148 1 -113 -1 -135 -18 -165 -11 -19 -19 -41 -18 -47 2 -7 3 -19 4
-27 0 -8 8 -22 17 -30 22 -23 23 -282 1 -317 -25 -38 -27 -74 -6 -108 25 -41
25 -88 0 -96 -34 -10 -34 -69 0 -80 28 -9 27 -96 -2 -136 -23 -33 -20 -87 5
-108 16 -14 10 -83 -10 -123 -8 -15 -14 -41 -14 -57 0 -34 -13 -68 -48 -124
-20 -34 -26 -38 -52 -32 -43 9 -88 -20 -96 -63 -7 -37 -29 -50 -104 -59 -79
-10 -184 -7 -176 6 3 4 17 6 31 3 78 -15 193 66 211 149 11 52 5 111 -16 154
-66 136 -246 157 -348 41 -90 -103 -53 -269 73 -327 27 -13 33 -19 19 -19 -26
0 -117 45 -169 83 -59 44 -150 143 -196 214 -23 35 -44 63 -47 63 -3 0 -20
-11 -38 -25 l-33 -26 -7 26 c-12 50 -82 62 -110 19 -21 -31 -10 -73 23 -89 21
-11 20 -12 -12 -34 -32 -21 -35 -22 -57 -7 -29 21 -61 20 -80 -1 -24 -28 -27
-49 -14 -75 11 -21 11 -26 -3 -35 -13 -8 -23 -6 -40 8 -84 68 -188 -57 -106
-128 27 -24 69 -30 94 -14 17 11 40 -13 41 -43 0 -32 47 -102 79 -117 16 -8
52 -36 79 -61 37 -35 51 -55 55 -85 9 -53 49 -87 91 -78 55 13 77 8 111 -27
29 -29 40 -33 83 -33 38 0 59 -6 84 -25 34 -25 61 -28 338 -32 180 -2 393 54
523 140 82 54 216 171 223 196 4 12 24 50 44 86 71 121 127 325 133 488 2 59
2 60 20 41 88 -95 236 15 168 124 -35 57 -98 67 -153 27 -15 -11 -28 -20 -30
-20 -2 0 -1 204 0 452 2 249 4 469 4 488 0 85 0 467 0 490 0 14 -1 84 -2 155
-1 72 -1 157 -1 190 3 215 -3 299 -25 345 -24 49 -65 95 -104 115 -35 18 -107
24 -154 12z"/>
<path d="M6028 6702 c-31 -22 -38 -32 -38 -65 0 -37 40 -77 77 -77 72 1 105
88 52 136 -25 23 -62 25 -91 6z"/>
<path d="M5804 6690 c-42 -16 -40 -66 2 -76 46 -12 72 37 37 68 -12 11 -25 13
-39 8z"/>
<path d="M5633 6652 c-29 -4 -63 -48 -63 -79 0 -32 42 -73 75 -73 40 0 62 16
75 56 11 32 10 39 -7 62 -21 28 -48 40 -80 34z"/>
<path d="M2065 6628 c-52 -28 -62 -92 -20 -133 49 -50 145 -17 145 49 0 72
-66 117 -125 84z"/>
<path d="M5892 6618 c-30 -30 0 -75 42 -64 29 7 40 31 26 57 -12 21 -50 25
-68 7z"/>
<path d="M6320 6620 c-142 -25 -217 -178 -151 -308 65 -127 248 -148 343 -38
129 147 0 379 -192 346z"/>
<path d="M2368 6572 c-35 -21 -46 -68 -24 -110 40 -77 156 -45 156 43 0 71
-70 106 -132 67z"/>
<path d="M5415 6559 c-71 -19 -114 -103 -89 -174 25 -73 93 -111 165 -92 44
11 98 65 100 100 4 51 -2 83 -19 106 -40 55 -97 76 -157 60z"/>
<path d="M1824 6545 c-66 -28 -62 -130 6 -153 59 -21 123 27 114 86 -1 6 -2
19 -3 27 -1 16 -39 44 -68 49 -10 2 -33 -2 -49 -9z"/>
<path d="M5846 6479 c-58 -46 9 -129 68 -86 26 19 24 67 -4 89 -28 23 -32 23
-64 -3z"/>
<path d="M3455 6460 c-204 -90 -142 -400 80 -402 184 -2 283 211 162 348 -16
19 -44 42 -61 51 -44 23 -132 24 -181 3z"/>
<path d="M7695 6458 c-21 -12 -46 -42 -56 -68 -10 -23 17 -92 43 -112 65 -50
168 3 168 87 0 78 -88 131 -155 93z"/>
<path d="M5661 6443 c-47 -23 -55 -80 -16 -118 52 -52 139 -14 128 56 -9 63
-56 89 -112 62z"/>
<path d="M1993 6380 c-59 -36 -87 -104 -70 -172 11 -46 71 -108 106 -109 14
-1 36 -3 49 -4 35 -4 99 33 123 71 81 132 -76 295 -208 214z"/>
<path d="M6883 6360 c-34 -14 -47 -46 -33 -81 14 -32 39 -44 72 -33 49 15 60
56 27 98 -22 28 -31 30 -66 16z"/>
<path d="M4265 6353 c-87 -24 -131 -123 -96 -216 9 -22 64 -77 79 -77 4 -1 24
-3 45 -6 90 -13 176 75 164 168 -12 91 -106 155 -192 131z"/>
<path d="M7968 6333 c-22 -6 -37 -52 -27 -80 11 -30 53 -40 84 -19 33 21 34
69 3 90 -23 16 -30 17 -60 9z"/>
<path d="M3846 6301 c-55 -36 -70 -94 -41 -151 49 -94 191 -70 211 35 18 98
-88 170 -170 116z"/>
<path d="M2317 6289 c-42 -24 -51 -93 -17 -134 33 -40 120 -24 140 26 32 77
-51 150 -123 108z"/>
<path d="M6058 6248 c-37 -30 -25 -78 21 -78 40 0 59 42 31 70 -23 23 -31 24
-52 8z"/>
<path d="M5710 6237 c-55 -28 -63 -112 -14 -144 59 -38 134 -1 134 66 -1 40
-14 62 -47 79 -27 15 -42 15 -73 -1z"/>
<path d="M5903 6213 c-16 -11 -23 -25 -23 -48 0 -44 29 -69 69 -60 50 11 68
67 32 99 -26 23 -52 26 -78 9z"/>
<path d="M7745 6188 c-22 -11 -48 -30 -59 -42 -81 -91 -56 -249 49 -304 185
-96 376 112 258 282 -55 80 -164 108 -248 64z"/>
<path d="M1735 6155 c-109 -38 -120 -191 -17 -244 98 -50 212 27 197 133 -12
93 -91 141 -180 111z"/>
<path d="M5296 6137 c-28 -21 -18 -69 17 -78 54 -14 83 61 31 81 -31 12 -27
13 -48 -3z"/>
<path d="M6330 6121 c-109 -58 -110 -214 -1 -271 89 -46 202 8 218 105 21 130
-105 227 -217 166z"/>
<path d="M3254 6075 c-130 -78 -81 -273 70 -281 87 -4 161 68 157 152 -2 68
-27 107 -88 138 -45 23 -91 20 -139 -9z"/>
<path d="M5119 6087 c-46 -35 -47 -101 -2 -137 34 -26 71 -25 107 3 60 48 22
147 -57 147 -18 0 -39 -6 -48 -13z"/>
<path d="M5398 6050 c-26 -27 -30 -36 -25 -67 8 -46 24 -62 71 -73 32 -7 41
-5 66 17 22 18 30 33 30 58 0 47 -8 64 -41 80 -42 22 -67 18 -101 -15z"/>
<path d="M2312 6058 c-38 -48 -14 -108 42 -108 37 0 51 12 61 52 5 19 1 32
-14 47 -23 23 -73 28 -89 9z"/>
<path d="M5926 6038 c-33 -47 -4 -108 52 -108 36 0 48 9 62 45 9 24 8 33 -8
54 -27 36 -84 41 -106 9z"/>
<path d="M5667 6012 c-22 -24 -22 -65 1 -85 43 -39 102 -15 102 42 0 54 -68
82 -103 43z"/>
<path d="M2065 6013 c-84 -23 -122 -130 -72 -204 75 -112 247 -59 247 77 0 35
-25 85 -54 106 -26 19 -89 30 -121 21z"/>
<path d="M4063 5994 c-50 -25 -81 -81 -79 -142 2 -63 26 -99 86 -129 128 -66
264 74 199 205 -36 71 -132 102 -206 66z"/>
<path d="M4435 6001 c-32 -13 -82 -70 -88 -100 -28 -137 101 -239 222 -177
101 53 102 213 1 267 -36 20 -100 24 -135 10z"/>
<path d="M6647 5936 c-159 -47 -201 -259 -72 -368 33 -28 111 -50 155 -44 206
29 258 293 78 395 -45 25 -110 32 -161 17z"/>
<path d="M3515 5901 c-115 -51 -80 -221 45 -221 106 0 152 131 72 203 -23 21
-87 31 -117 18z"/>
<path d="M5303 5902 c-15 -9 -19 -32 -9 -59 11 -33 62 -32 77 1 21 45 -26 85
-68 58z"/>
<path d="M5574 5900 c-85 -35 -61 -163 31 -163 73 0 111 83 63 137 -26 29 -63
39 -94 26z"/>
<path d="M2318 5874 c-56 -30 -73 -102 -38 -159 47 -76 173 -64 199 18 34 107
-65 194 -161 141z"/>
<path d="M3765 5881 c-53 -23 -83 -94 -61 -145 19 -44 48 -67 93 -72 106 -13
167 117 90 193 -26 27 -88 39 -122 24z"/>
<path d="M5076 5859 c-28 -33 -32 -59 -14 -92 16 -32 39 -46 71 -47 40 0 67
17 82 53 37 89 -77 160 -139 86z"/>
<path d="M5912 5878 c-31 -31 5 -92 49 -81 51 14 43 93 -9 93 -15 0 -33 -5
-40 -12z"/>
<path d="M8062 5874 c-137 -70 -78 -281 75 -269 133 10 180 187 70 260 -37 24
-107 28 -145 9z"/>
<path d="M5399 5809 c-26 -49 35 -93 75 -54 17 17 13 54 -6 67 -24 15 -57 8
-69 -13z"/>
<path d="M4855 5805 c-164 -57 -108 -307 66 -292 88 7 146 78 136 165 -11 101
-105 160 -202 127z"/>
<path d="M5803 5808 c-107 -29 -63 -187 44 -163 51 12 79 77 53 126 -17 31
-60 47 -97 37z"/>
<path d="M1830 5757 c-52 -27 -80 -75 -80 -137 0 -83 50 -137 136 -146 168
-18 231 212 78 286 -52 26 -81 25 -134 -3z"/>
<path d="M6051 5757 c-35 -17 -44 -60 -19 -92 24 -30 61 -32 88 -5 33 33 26
76 -17 99 -26 13 -23 13 -52 -2z"/>
<path d="M7756 5753 c-10 -3 -32 -13 -47 -22 -127 -78 -117 -276 17 -341 137
-67 284 27 284 182 0 100 -92 190 -194 187 -22 -1 -50 -4 -60 -6z"/>
<path d="M3250 5677 c-94 -62 -96 -183 -5 -253 58 -44 144 -34 197 22 47 52
53 129 14 189 -43 65 -143 86 -206 42z"/>
<path d="M6305 5683 c-80 -42 -109 -127 -70 -205 34 -68 101 -98 175 -78 72
19 114 78 111 155 -5 106 -124 177 -216 128z"/>
<path d="M5335 5669 c-30 -25 -33 -61 -5 -89 27 -27 64 -25 88 5 47 60 -22
131 -83 84z"/>
<path d="M3928 5670 c-179 -54 -190 -322 -16 -395 81 -33 187 -9 242 56 35 42
48 73 51 127 9 148 -132 256 -277 212z"/>
<path d="M2180 5657 c-91 -43 -134 -115 -128 -212 7 -112 78 -183 191 -192 67
-6 116 11 164 57 57 53 78 153 47 228 -20 50 -92 117 -135 126 -47 9 -111 6
-139 -7z"/>
<path d="M3604 5659 c-45 -13 -76 -51 -81 -102 -5 -40 -2 -48 28 -81 32 -34
55 -42 111 -37 32 2 76 50 83 90 14 84 -59 151 -141 130z"/>
<path d="M5134 5655 c-53 -22 -67 -92 -27 -137 38 -43 122 -25 140 29 13 38
-1 87 -29 100 -41 20 -54 21 -84 8z"/>
<path d="M5670 5630 c-11 -11 -20 -24 -20 -30 0 -15 38 -50 54 -50 14 0 46 36
46 52 0 11 -38 48 -50 48 -5 0 -19 -9 -30 -20z"/>
<path d="M5915 5615 c-17 -16 -25 -35 -25 -60 0 -85 117 -119 155 -44 21 40
19 63 -11 98 -33 40 -83 43 -119 6z"/>
<path d="M4379 5527 c-48 -33 -71 -70 -74 -118 -6 -92 60 -163 151 -163 148
-2 210 190 88 273 -49 34 -121 38 -165 8z"/>
<path d="M5562 5517 c-31 -33 -30 -91 2 -113 34 -22 56 -24 87 -8 70 35 41
144 -37 144 -19 0 -39 -9 -52 -23z"/>
<path d="M5296 5507 c-49 -49 -12 -127 59 -127 38 0 75 37 75 75 0 12 -9 34
-21 49 -27 35 -80 36 -113 3z"/>
<path d="M6850 5490 c-25 -25 -25 -42 -2 -63 24 -22 38 -21 62 3 21 21 18 46
-8 68 -21 16 -29 15 -52 -8z"/>
<path d="M8038 5459 c-66 -34 -93 -121 -58 -189 68 -134 273 -81 266 68 -2 51
-31 103 -68 123 -38 20 -100 19 -140 -2z"/>
<path d="M6611 5450 c-60 -20 -84 -40 -118 -98 -34 -57 -33 -126 1 -196 78
-158 312 -149 380 16 70 167 -91 337 -263 278z"/>
<path d="M1816 5433 c-44 -7 -103 -48 -133 -95 -24 -36 -28 -52 -28 -114 0
-64 3 -77 30 -116 97 -137 306 -118 370 34 33 81 9 187 -56 242 -50 42 -113
59 -183 49z"/>
<path d="M3530 5412 c-135 -11 -264 -107 -311 -231 -77 -202 33 -425 238 -485
165 -47 353 35 428 189 30 61 35 82 37 155 1 70 -8 113 -39 173 -63 126 -214
211 -353 199z"/>
<path d="M4682 5390 c-52 -32 -74 -76 -69 -138 4 -59 27 -97 74 -124 97 -57
216 9 228 127 2 25 -19 82 -38 103 -50 55 -135 69 -195 32z"/>
<path d="M5900 5385 c-120 -32 -215 -119 -254 -234 l-13 -35 -7 27 c-8 34 -47
45 -81 23 -60 -40 -1 -129 60 -91 20 12 21 10 22 -49 4 -234 216 -400 448
-351 60 12 136 58 184 111 67 73 94 145 94 250 0 70 -4 90 -30 145 -77 162
-258 249 -423 204z"/>
<path d="M5486 5364 c-9 -8 -16 -21 -16 -27 1 -16 22 -41 39 -45 16 -3 51 26
51 44 0 17 -28 44 -45 44 -7 0 -21 -7 -29 -16z"/>
<path d="M7765 5332 c-52 -33 -68 -59 -72 -115 -6 -84 45 -146 124 -152 51 -3
84 10 118 45 23 24 30 41 33 89 4 57 3 61 -34 100 -33 35 -47 42 -89 47 -39 4
-57 1 -80 -14z"/>
<path d="M5295 5315 c-51 -50 -20 -130 50 -128 48 1 78 30 77 73 -2 71 -79
104 -127 55z"/>
<path d="M5598 5309 c-34 -19 -20 -69 22 -76 39 -6 56 58 21 77 -23 12 -22 12
-43 -1z"/>
<path d="M5083 5230 c-48 -29 -68 -66 -66 -121 2 -78 49 -128 127 -134 81 -6
146 56 146 140 0 103 -119 169 -207 115z"/>
<path d="M2393 5210 c-43 -18 -50 -67 -14 -103 16 -17 25 -19 53 -11 25 7 35
17 42 43 9 30 7 36 -18 57 -30 26 -31 27 -63 14z"/>
<path d="M4013 5210 c-28 -11 -63 -66 -63 -98 0 -34 26 -85 51 -101 12 -7 40
-14 62 -16 36 -3 46 1 79 35 28 28 38 46 38 69 0 88 -85 144 -167 111z"/>
<path d="M5353 5125 c-35 -25 -44 -67 -22 -104 10 -17 22 -31 26 -32 5 0 16
-2 27 -4 32 -6 66 14 80 46 17 40 11 64 -22 89 -29 24 -60 25 -89 5z"/>
<path d="M8097 5125 c-116 -40 -169 -161 -118 -270 88 -191 371 -126 373 86 1
130 -133 226 -255 184z"/>
<path d="M4353 5115 c-50 -21 -76 -63 -70 -113 7 -64 47 -102 107 -102 52 0
83 18 105 60 20 39 19 69 -5 107 -32 52 -83 70 -137 48z"/>
<path d="M2153 5089 c-30 -15 -48 -33 -62 -63 -42 -86 -16 -167 65 -207 129
-62 262 66 204 197 -35 80 -127 113 -207 73z"/>
<path d="M6846 5094 c-40 -40 13 -96 62 -65 20 12 22 44 4 64 -19 21 -46 22
-66 1z"/>
<path d="M7614 5080 c-54 -22 -31 -110 28 -110 24 0 58 35 58 60 0 23 -33 60
-52 59 -7 0 -22 -4 -34 -9z"/>
<path d="M4739 5022 c-76 -39 -113 -101 -113 -185 0 -68 18 -111 61 -152 82
-75 199 -79 281 -10 69 60 92 138 66 225 -25 84 -96 139 -189 146 -43 4 -61
-1 -106 -24z"/>
<path d="M6456 5008 c-9 -12 -16 -29 -16 -38 0 -30 30 -60 60 -60 27 0 59 21
61 41 1 5 2 15 3 22 1 6 -4 22 -12 35 -20 30 -75 31 -96 0z"/>
<path d="M6725 4981 c-86 -37 -94 -164 -13 -207 101 -53 206 54 153 156 -24
46 -92 71 -140 51z"/>
<path d="M1882 4947 c-18 -6 -46 -25 -62 -43 -92 -106 -8 -267 132 -251 60 7
92 30 119 84 60 122 -55 249 -189 210z"/>
<path d="M7689 4913 c-114 -57 -146 -201 -66 -298 118 -143 347 -62 347 123 0
145 -152 239 -281 175z"/>
<path d="M5385 4905 c-42 -42 -26 -120 28 -138 59 -19 117 21 117 80 0 74 -93
111 -145 58z"/>
<path d="M3933 4894 c-53 -22 -87 -77 -87 -139 -1 -111 102 -181 207 -141 59
23 92 73 92 142 0 56 -18 91 -66 126 -32 24 -104 30 -146 12z"/>
<path d="M2226 4779 c-168 -26 -237 -235 -118 -355 105 -105 281 -73 342 62
41 88 15 188 -67 257 -34 29 -101 44 -157 36z"/>
<path d="M6430 4754 c-130 -54 -100 -252 43 -279 87 -17 175 69 164 161 -11
103 -109 159 -207 118z"/>
<path d="M5095 4735 c-61 -60 -1 -159 85 -140 30 7 60 51 60 89 0 68 -96 101
-145 51z"/>
<path d="M5390 4710 c-53 -13 -58 -81 -7 -110 52 -29 106 30 77 85 -14 27 -34
34 -70 25z"/>
<path d="M8045 4700 c-40 -16 -77 -67 -82 -113 -20 -171 220 -223 275 -60 20
59 -7 131 -61 163 -33 21 -96 25 -132 10z"/>
<path d="M3635 4656 c-119 -58 -130 -207 -20 -272 129 -75 276 57 215 194 -10
21 -31 48 -47 60 -39 27 -110 36 -148 18z"/>
<path d="M6195 4628 c-44 -25 -50 -62 -17 -100 33 -39 102 -10 102 43 0 30 -9
43 -37 58 -26 13 -23 13 -48 -1z"/>
<path d="M4413 4610 c-44 -18 -50 -77 -10 -105 29 -20 49 -19 75 5 27 26 28
64 2 90 -22 22 -33 23 -67 10z"/>
<path d="M6779 4595 c-37 -20 -62 -76 -53 -122 19 -99 153 -124 205 -39 62
101 -48 217 -152 161z"/>
<path d="M4022 4574 c-40 -20 -82 -89 -82 -133 0 -69 64 -151 118 -151 12 0
22 -5 22 -11 0 -5 -4 -8 -10 -4 -14 8 -72 -19 -95 -45 -14 -15 -20 -36 -20
-70 0 -137 199 -154 221 -18 8 47 -18 102 -57 118 -25 11 -42 32 -21 29 25 -4
54 4 83 24 l34 23 -4 -43 c-2 -28 3 -52 13 -68 39 -60 127 -69 177 -18 98 100
-44 257 -150 167 l-31 -25 16 36 c25 61 6 131 -48 174 -40 32 -119 39 -166 15z"/>
<path d="M4735 4580 c-11 -4 -31 -18 -44 -30 -99 -95 -32 -263 104 -263 82 0
145 58 152 140 7 89 -62 164 -152 162 -22 0 -49 -4 -60 -9z"/>
<path d="M5251 4573 c-34 -28 -43 -75 -20 -112 55 -90 189 -18 149 79 -20 48
-89 65 -129 33z"/>
<path d="M1867 4498 c-97 -49 -114 -180 -33 -252 51 -44 123 -48 183 -10 50
33 72 76 68 132 -9 113 -121 180 -218 130z"/>
<path d="M5484 4496 c-70 -31 -104 -114 -78 -189 37 -108 172 -137 251 -55 40
43 52 82 41 132 -23 101 -121 152 -214 112z"/>
<path d="M7870 4462 c-63 -9 -109 -92 -90 -161 33 -124 220 -114 244 13 16 87
-62 161 -154 148z"/>
<path d="M3310 4447 c-139 -64 -177 -233 -76 -340 59 -63 164 -84 241 -48 205
95 138 404 -87 400 -29 0 -64 -6 -78 -12z"/>
<path d="M6140 4380 c-25 -25 -25 -51 -2 -79 26 -32 60 -34 87 -7 18 18 23 32
19 52 -10 52 -67 71 -104 34z"/>
<path d="M5114 4370 c-56 -8 -90 -32 -114 -80 -23 -45 -22 -99 4 -148 42 -82
168 -98 236 -31 105 105 19 281 -126 259z"/>
<path d="M3723 4348 c-125 -34 -141 -218 -24 -278 48 -24 100 -23 147 4 49 27
76 73 76 131 0 104 -94 172 -199 143z"/>
<path d="M4555 4313 c-55 -10 -106 -90 -99 -152 18 -157 256 -150 269 8 7 91
-76 162 -170 144z"/>
<path d="M2175 4282 c-79 -38 -125 -109 -125 -192 0 -182 226 -279 356 -152
46 45 64 88 64 155 0 69 -31 129 -88 170 -55 40 -145 48 -207 19z"/>
<path d="M7633 4280 c-63 -26 -25 -121 42 -104 46 11 58 57 25 92 -22 24 -33
26 -67 12z"/>
<path d="M5390 4162 c-61 -20 -81 -99 -35 -142 78 -73 193 35 123 114 -23 26
-60 37 -88 28z"/>
<path d="M7851 4122 c-97 -49 -106 -181 -17 -245 22 -16 45 -22 81 -21 88 0
148 66 140 153 -10 103 -113 160 -204 113z"/>
<path d="M7594 4097 c-56 -49 -23 -137 50 -137 74 1 107 89 52 137 -34 29 -68
29 -102 0z"/>
<path d="M5089 3989 c-50 -18 -64 -90 -26 -135 49 -57 147 -20 147 56 0 59
-63 100 -121 79z"/>
<path d="M5336 3931 c-27 -30 -28 -60 -1 -86 37 -38 105 -11 105 42 0 52 -70
82 -104 44z"/>
<path d="M8074 3930 c-68 -27 -71 -121 -6 -154 90 -45 169 73 91 138 -32 27
-50 30 -85 16z"/>
<path d="M2061 3838 c-35 -37 -1 -112 47 -103 9 2 20 4 24 4 16 2 39 51 33 70
-16 52 -69 67 -104 29z"/>
<path d="M7533 3835 c-47 -33 -38 -112 17 -135 79 -33 143 55 89 124 -24 30
-71 35 -106 11z"/>
<path d="M2340 3828 c-63 -23 -92 -86 -71 -150 19 -57 98 -91 149 -64 68 35
89 107 50 166 -27 40 -88 63 -128 48z"/>
<path d="M5245 3820 c-69 -26 -78 -123 -14 -155 78 -41 154 37 114 115 -9 17
-17 30 -18 30 -1 0 -16 4 -32 9 -17 4 -39 5 -50 1z"/>
<path d="M5442 3779 c-26 -10 -38 -52 -24 -84 26 -57 112 -34 112 29 0 47 -40
73 -88 55z"/>
<path d="M7811 3764 c-39 -49 -17 -117 41 -129 77 -17 129 75 73 130 -34 35
-86 34 -114 -1z"/>
<path d="M8074 3642 c-40 -26 -35 -95 8 -111 40 -15 88 16 88 56 0 44 -60 79
-96 55z"/>
<path d="M5641 3628 c-74 -11 -148 -51 -203 -109 -230 -239 -44 -634 289 -614
130 8 248 91 306 214 25 54 31 77 31 140 0 93 -14 142 -60 212 -78 119 -218
180 -363 157z"/>
<path d="M7671 3593 c-30 -25 -33 -57 -10 -82 23 -25 47 -27 77 -5 28 19 29
57 2 84 -25 25 -41 25 -69 3z"/>
<path d="M7854 3588 c-69 -18 -77 -120 -13 -153 38 -20 61 -19 92 5 76 60 15
173 -79 148z"/>
<path d="M5172 3525 c-30 -22 -43 -73 -25 -107 27 -56 88 -64 134 -19 31 31
36 59 17 94 -25 48 -82 62 -126 32z"/>
<path d="M7260 3493 c-52 -20 -68 -103 -27 -141 30 -28 90 -30 118 -3 12 11
23 35 26 55 4 30 0 41 -25 66 -29 29 -58 36 -92 23z"/>
<path d="M7044 3458 c-22 -10 -44 -47 -44 -74 0 -34 34 -74 68 -80 45 -9 80 9
96 48 33 77 -43 144 -120 106z"/>
<path d="M7466 3455 c-49 -50 -6 -130 58 -105 64 24 49 120 -19 120 -13 0 -30
-7 -39 -15z"/>
<path d="M2425 3451 c-88 -38 -92 -166 -7 -207 119 -56 222 100 124 189 -23
21 -87 31 -117 18z"/>
<path d="M8055 3435 c-36 -35 -35 -96 1 -124 64 -50 155 1 139 78 -13 67 -93
94 -140 46z"/>
<path d="M4603 3435 c-189 -56 -207 -313 -28 -396 196 -91 380 148 251 324
-46 62 -146 95 -223 72z"/>
<path d="M3408 3406 c-58 -53 -21 -146 57 -146 70 0 110 82 67 138 -12 15 -32
25 -58 29 -32 4 -44 1 -66 -21z"/>
<path d="M3205 3385 c-32 -31 -32 -58 1 -84 33 -26 45 -26 75 -2 34 27 35 65
2 90 -33 27 -49 26 -78 -4z"/>
<path d="M6799 3397 c-44 -34 -47 -98 -5 -134 85 -73 186 44 110 128 -20 22
-80 25 -105 6z"/>
<path d="M4019 3371 c-45 -46 -37 -106 19 -135 56 -28 122 10 122 72 0 42 -46
92 -85 92 -16 0 -38 -12 -56 -29z"/>
<path d="M6582 3365 c-24 -30 -18 -70 13 -91 13 -8 30 -12 41 -8 54 20 70 68
34 104 -27 27 -64 25 -88 -5z"/>
<path d="M4993 3354 c-28 -28 -29 -58 -3 -84 35 -35 93 -21 104 26 16 61 -56
102 -101 58z"/>
<path d="M3022 3354 c-18 -12 -22 -24 -20 -52 5 -64 83 -80 113 -23 14 29 7
55 -23 79 -21 16 -43 15 -70 -4z"/>
<path d="M3827 3359 c-25 -15 -47 -62 -40 -90 18 -73 100 -94 147 -38 20 23
25 38 21 62 -10 60 -78 95 -128 66z"/>
<path d="M4250 3352 c-30 -24 -30 -70 1 -95 59 -48 133 39 79 93 -25 25 -51
25 -80 2z"/>
<path d="M6200 3328 c-30 -11 -40 -25 -40 -59 0 -52 69 -79 103 -41 31 34 18
80 -28 104 -5 3 -21 1 -35 -4z"/>
<path d="M7903 3318 c-32 -16 -48 -71 -33 -109 15 -35 37 -49 80 -49 66 0 105
87 63 139 -21 25 -78 35 -110 19z"/>
<path d="M3629 3276 c-35 -17 -53 -56 -45 -97 7 -37 24 -53 74 -64 27 -6 36
-2 62 23 37 37 40 80 8 116 -27 30 -66 39 -99 22z"/>
<path d="M7514 3278 c-62 -29 -63 -133 -2 -154 41 -14 53 -13 78 3 25 16 25
16 -3 -16 -78 -93 21 -226 133 -176 30 14 43 27 55 59 8 22 13 48 12 56 -14
68 -64 106 -128 97 -35 -5 -40 -3 -33 11 12 30 12 56 -2 83 -19 38 -71 56
-110 37z"/>
<path d="M7010 3257 c-59 -30 -61 -116 -4 -149 65 -38 144 22 123 95 -5 16
-10 31 -11 32 -58 40 -68 42 -108 22z"/>
<path d="M6475 3231 c-40 -12 -56 -28 -69 -66 -41 -119 117 -193 183 -85 47
78 -29 179 -114 151z"/>
<path d="M3146 3220 c-124 -39 -140 -215 -26 -279 107 -60 232 22 225 146 -6
95 -106 162 -199 133z"/>
<path d="M2513 3179 c-48 -17 -48 -82 0 -109 24 -13 30 -13 54 0 68 38 19 136
-54 109z"/>
<path d="M4301 3178 c-75 -27 -65 -144 14 -164 32 -8 77 15 93 49 15 31 8 79
-13 97 -22 18 -69 28 -94 18z"/>
<path d="M5135 3165 c-105 -36 -139 -166 -64 -244 128 -134 335 22 241 182
-35 61 -107 86 -177 62z"/>
<path d="M7220 3157 c-130 -87 -74 -282 80 -280 27 1 62 9 78 19 41 24 72 82
72 136 0 114 -136 189 -230 125z"/>
<path d="M6803 3129 c-34 -12 -47 -44 -31 -76 17 -35 39 -47 70 -40 29 8 50
49 42 82 -7 28 -49 46 -81 34z"/>
<path d="M3871 3108 c-34 -12 -52 -34 -58 -72 -5 -30 -1 -40 25 -66 17 -16 40
-30 52 -30 78 0 122 90 70 145 -25 27 -57 35 -89 23z"/>
<path d="M3470 3102 c-8 -2 -25 -14 -37 -25 -26 -23 -31 -81 -10 -108 53 -70
163 -28 152 58 -2 20 -11 43 -18 50 -16 17 -67 31 -87 25z"/>
<path d="M2800 3081 c-74 -39 -101 -128 -64 -207 33 -68 130 -99 202 -62 53
27 75 62 80 128 3 45 0 61 -20 90 -44 66 -129 88 -198 51z"/>
<path d="M6188 3070 c-24 -14 -41 -72 -29 -101 18 -50 71 -70 119 -45 54 28
61 106 14 142 -20 16 -80 18 -104 4z"/>
<path d="M7979 3003 c-92 -36 -92 -170 0 -207 77 -30 154 21 155 104 0 80 -80
133 -155 103z"/>
<path d="M4774 2990 c-104 -48 -116 -194 -22 -262 45 -32 130 -32 174 -1 87
62 83 203 -6 256 -41 25 -102 27 -146 7z"/>
<path d="M6923 2988 c-37 -40 -2 -112 49 -103 54 11 75 68 38 105 -26 26 -62
25 -87 -2z"/>
<path d="M4457 2979 c-24 -14 -45 -59 -41 -89 6 -36 49 -70 88 -70 44 0 80 38
80 87 0 62 -73 103 -127 72z"/>
<path d="M4043 2960 c-139 -84 -71 -295 91 -282 143 11 187 207 64 282 -43 26
-113 26 -155 0z"/>
<path d="M3667 2929 c-28 -16 -37 -50 -21 -81 8 -16 20 -28 27 -29 6 0 20 -2
29 -4 25 -5 58 32 58 64 0 49 -49 75 -93 50z"/>
<path d="M5953 2909 c-60 -22 -41 -119 24 -119 53 0 83 73 43 107 -23 20 -38
23 -67 12z"/>
<path d="M7503 2895 c-64 -28 -62 -130 4 -152 54 -19 92 -3 113 47 17 42 -3
88 -46 106 -39 16 -31 16 -71 -1z"/>
<path d="M3302 2859 c-80 -40 -106 -141 -56 -215 32 -47 37 -51 89 -65 70 -19
167 28 179 89 14 66 13 81 -4 119 -36 81 -128 113 -208 72z"/>
<path d="M5685 2844 c-78 -84 45 -194 125 -114 12 12 20 33 20 55 0 78 -93
115 -145 59z"/>
<path d="M5403 2845 c-32 -23 -32 -79 1 -100 45 -30 96 1 96 58 0 44 -59 69
-97 42z"/>
<path d="M6155 2835 c-46 -45 -24 -127 36 -140 87 -19 146 81 83 140 -36 33
-87 33 -119 0z"/>
<path d="M6558 2827 c-27 -21 -32 -60 -11 -85 27 -33 60 -36 89 -7 30 30 31
58 2 85 -25 23 -55 25 -80 7z"/>
<path d="M5199 2779 c-45 -45 -4 -120 56 -105 50 13 59 97 12 112 -40 14 -48
13 -68 -7z"/>
<path d="M6790 2782 c-50 -23 -70 -49 -77 -97 -16 -119 156 -172 212 -65 27
52 11 119 -35 148 -24 15 -82 23 -100 14z"/>
<path d="M7750 2731 c-75 -23 -125 -71 -149 -140 -45 -136 56 -274 199 -274
123 0 215 94 211 216 -4 132 -140 235 -261 198z"/>
<path d="M3633 2700 c-35 -14 -56 -55 -49 -94 8 -44 35 -66 81 -68 79 -3 115
95 54 146 -32 27 -50 31 -86 16z"/>
<path d="M6412 2685 c-65 -28 -91 -105 -55 -165 52 -89 188 -62 208 41 16 82
-76 156 -153 124z"/>
<path d="M4318 2661 c-29 -26 -33 -36 -33 -79 0 -56 20 -86 71 -108 40 -17 91
-4 125 32 19 20 24 36 24 76 0 43 -4 53 -33 79 -25 23 -42 29 -77 29 -35 0
-52 -6 -77 -29z"/>
<path d="M3057 2662 c-36 -40 -9 -102 45 -102 47 0 73 54 48 101 -14 25 -71
26 -93 1z"/>
<path d="M4642 2662 c-110 -36 -172 -171 -128 -276 56 -135 225 -178 332 -84
73 64 95 166 55 254 -42 92 -159 140 -259 106z"/>
<path d="M4971 2666 c-20 -23 -17 -77 5 -93 30 -22 76 -12 94 20 13 24 13 30
0 55 -18 32 -78 43 -99 18z"/>
<path d="M5555 2670 c-101 -22 -165 -104 -165 -210 0 -56 18 -100 59 -143 36
-40 72 -57 130 -62 74 -6 120 11 168 61 86 89 84 212 -7 302 -44 44 -120 66
-185 52z"/>
<path d="M6011 2667 c-52 -16 -117 -84 -131 -137 -38 -143 57 -273 200 -273
148 0 249 148 196 287 -18 47 -70 100 -115 118 -37 15 -110 17 -150 5z"/>
<path d="M7362 2672 c-7 -5 -16 -22 -21 -40 -8 -26 -6 -35 15 -55 39 -39 104
-12 104 43 0 46 -58 77 -98 52z"/>
<path d="M7115 2662 c-90 -30 -130 -139 -83 -223 60 -107 218 -99 268 13 30
67 9 146 -50 189 -27 20 -103 31 -135 21z"/>
<path d="M3933 2648 c-101 -27 -69 -181 35 -165 12 2 33 14 47 27 62 59 2 161
-82 138z"/>
<path d="M4116 2604 c-22 -21 -20 -67 2 -87 41 -37 102 -11 102 43 0 16 -7 36
-16 44 -8 9 -28 16 -44 16 -16 0 -36 -7 -44 -16z"/>
<path d="M5145 2563 c-108 -58 -106 -214 3 -269 132 -68 268 66 203 199 -37
76 -134 109 -206 70z"/>
<path d="M3386 2518 c-32 -46 -6 -98 48 -98 41 0 59 20 58 63 -1 56 -75 80
-106 35z"/>
<path d="M4233 2430 c-23 -10 -49 -30 -58 -44 -58 -88 3 -208 108 -210 55 -1
92 18 119 62 39 64 19 149 -44 186 -42 25 -79 27 -125 6z"/>
<path d="M3855 2411 c-57 -26 -90 -86 -82 -152 7 -61 30 -93 85 -120 34 -17
52 -20 88 -14 154 23 176 239 31 294 -40 16 -76 13 -122 -8z"/>
<path d="M6670 2400 c-123 -35 -180 -137 -153 -271 8 -43 86 -121 135 -136
139 -42 279 62 278 206 0 39 -27 105 -56 140 -41 49 -142 79 -204 61z"/>
<path d="M3582 2385 c-32 -14 -52 -47 -52 -86 0 -30 51 -77 80 -74 14 1 30 3
37 4 25 2 53 45 53 81 0 63 -59 100 -118 75z"/>
<path d="M6326 2348 c-23 -32 -20 -64 9 -86 53 -42 122 15 93 76 -18 38 -78
44 -102 10z"/>
<path d="M7420 2298 c-33 -36 -13 -91 37 -101 19 -3 33 2 50 19 28 28 29 53 3
82 -27 28 -64 28 -90 0z"/>
<path d="M5288 2269 c-69 -41 -93 -142 -50 -211 59 -95 195 -94 259 2 41 60
22 158 -39 203 -41 31 -124 33 -170 6z"/>
<path d="M5745 2278 c-40 -21 -75 -62 -80 -92 -12 -60 -12 -71 -3 -96 11 -34
64 -89 91 -95 60 -13 79 -12 119 8 108 55 119 198 19 264 -37 25 -111 31 -146
11z"/>
<path d="M4874 2262 c-59 -24 -94 -56 -119 -108 -49 -102 -4 -227 100 -282 40
-20 141 -20 180 1 79 42 119 106 119 192 0 37 -7 72 -17 92 -51 97 -167 144
-263 105z"/>
<path d="M7690 2262 c-50 -16 -65 -67 -29 -103 27 -27 66 -21 92 12 17 24 18
30 6 54 -15 30 -44 45 -69 37z"/>
<path d="M8056 2249 c-52 -41 -28 -128 41 -145 53 -14 113 46 99 99 -16 65
-87 88 -140 46z"/>
<path d="M4494 2250 c-58 -18 -104 -93 -99 -163 5 -70 79 -137 152 -137 75 0
153 77 153 151 0 46 -34 111 -69 132 -37 21 -96 29 -137 17z"/>
<path d="M7116 2147 c-129 -73 -91 -268 55 -284 88 -9 169 63 169 149 0 116
-125 191 -224 135z"/>
<path d="M7679 2028 c-129 -74 -86 -271 62 -283 84 -7 156 55 163 141 11 120
-121 203 -225 142z"/>
<path d="M6064 2000 c-72 -36 -105 -131 -69 -200 8 -16 30 -41 49 -55 137
-105 315 75 210 212 -47 62 -118 78 -190 43z"/>
<path d="M7442 1944 c-50 -35 -14 -117 48 -107 71 10 62 123 -10 123 -9 0 -26
-7 -38 -16z"/>
<path d="M6392 1914 c-45 -31 -21 -105 35 -106 43 -1 63 17 63 58 0 34 -28 64
-60 64 -9 0 -26 -7 -38 -16z"/>
<path d="M5469 1892 c-82 -26 -125 -128 -89 -209 64 -143 273 -108 288 48 10
107 -96 193 -199 161z"/>
<path d="M5154 1822 c-14 -9 -31 -44 -28 -59 1 -7 2 -17 3 -23 2 -14 54 -38
71 -32 51 17 67 79 28 106 -24 17 -56 20 -74 8z"/>
<path d="M6765 1802 c-48 -30 -69 -70 -70 -132 0 -93 63 -155 154 -151 142 5
202 188 88 272 -44 32 -130 38 -172 11z"/>
<path d="M5772 1746 c-26 -34 -18 -72 19 -91 57 -30 110 27 78 84 -21 37 -70
41 -97 7z"/>
<path d="M7080 1750 c-37 -37 -16 -94 39 -105 28 -5 71 35 66 61 -2 11 -4 22
-4 26 -1 4 -8 14 -17 22 -21 22 -60 20 -84 -4z"/>
<path d="M7316 1707 c-55 -55 -17 -147 60 -147 47 0 88 50 80 99 -7 45 -24 61
-74 68 -34 5 -44 1 -66 -20z"/>
<path d="M6492 1710 c-27 -11 -51 -62 -44 -96 10 -52 92 -83 134 -50 18 13 38
57 38 82 0 24 -56 74 -82 73 -13 0 -33 -4 -46 -9z"/>
<path d="M7564 1675 c-13 -13 -24 -32 -24 -43 0 -21 35 -62 53 -62 52 1 84 40
67 84 -17 46 -62 55 -96 21z"/>
<path d="M5912 1523 c-48 -23 -75 -67 -80 -130 -4 -46 -1 -58 22 -88 35 -45
61 -62 109 -69 69 -11 138 32 162 100 44 130 -90 248 -213 187z"/>
<path d="M7202 1470 c-59 -27 -87 -72 -87 -142 0 -55 3 -60 43 -101 41 -40 45
-42 105 -42 72 0 103 18 137 78 38 66 13 156 -54 201 -37 24 -98 26 -144 6z"/>
<path d="M7702 1397 c-52 -55 -9 -149 66 -142 111 10 104 165 -7 165 -26 0
-44 -7 -59 -23z"/>
<path d="M5550 1378 c-25 -27 -25 -49 -2 -78 39 -48 121 -10 107 49 -12 52
-69 68 -105 29z"/>
<path d="M6645 1332 c-95 -20 -149 -106 -124 -197 12 -43 67 -92 115 -103 122
-27 219 94 170 212 -25 59 -101 101 -161 88z"/>
<path d="M6970 1332 c-72 -23 -62 -122 12 -122 44 0 75 59 50 96 -11 17 -46
32 -62 26z"/>
<path d="M6226 1218 c-42 -59 19 -123 84 -88 26 14 34 57 15 86 -21 32 -77 33
-99 2z"/>
<path d="M7055 1124 c-16 -25 -16 -29 -1 -61 15 -31 20 -34 54 -31 30 2 40 9
51 32 20 43 -1 80 -50 84 -30 3 -39 -2 -54 -24z"/>
<path d="M7331 1124 c-57 -24 -64 -101 -14 -141 82 -66 183 46 111 123 -25 28
-59 34 -97 18z"/>
<path d="M7699 1069 c-33 -33 -12 -92 37 -102 54 -10 92 60 54 101 -26 28 -64
28 -91 1z"/>
<path d="M6134 1022 c-44 -29 -35 -93 16 -111 28 -9 34 -8 56 14 13 13 24 35
24 49 0 40 -62 71 -96 48z"/>
<path d="M6879 1015 c-64 -35 -57 -130 12 -154 89 -31 152 78 84 145 -19 20
-68 24 -96 9z"/>
<path d="M6654 869 c-52 -19 -69 -87 -34 -132 53 -67 150 -29 150 58 0 51 -66
93 -116 74z"/>
<path d="M6357 837 c-16 -11 -22 -39 -18 -74 0 -7 13 -19 29 -27 63 -32 122
44 72 94 -23 23 -58 26 -83 7z"/>
<path d="M7143 619 c-41 -15 -52 -63 -21 -96 26 -28 62 -29 88 -3 47 47 -4
122 -67 99z"/>
<path d="M6805 474 c-33 -35 -32 -74 2 -114 24 -29 31 -32 67 -27 49 7 76 36
76 84 0 76 -94 112 -145 57z"/>
</g>
</svg>
